<?xml version="1.0" encoding="UTF-8"?>
<svg width="312px" height="64px" viewBox="0 0 312 64" version="1.1" xmlns="http://www.w3.org/2000/svg" xmlns:xlink="http://www.w3.org/1999/xlink">
    <title>logo-white</title>
    <defs>
        <linearGradient x1="50%" y1="0%" x2="50%" y2="100%" id="linearGradient-1">
            <stop stop-color="#FFFFFF" offset="0%"></stop>
            <stop stop-color="#FFFFFF" offset="100%"></stop>
        </linearGradient>
    </defs>
    <g id="icons" stroke="none" stroke-width="1" fill="none" fill-rule="evenodd">
        <g id="canvas" transform="translate(-356.000000, -129.000000)">
            <g id="logo-white" transform="translate(356.000000, 129.000000)">
                <g id="icon64">
                    <rect id="bg" fill="url(#linearGradient-1)" x="0" y="0" width="64" height="64" rx="14.25"></rect>
                    <g id="text" transform="translate(12.875000, 3.625000)">
                        <path d="M1.51513676,56.75 C1.87876958,56.75 2.22220058,56.6081351 2.54542975,56.3244054 C2.86865893,56.0406757 3.37370451,55.412417 4.06056651,54.4396293 C5.19186862,52.8588494 5.96963882,51.6732644 6.39387711,50.8828744 C6.81811541,50.0924845 6.74740902,49.3730269 6.18175797,48.7245018 L8.84839866,43.8605635 C9.6564716,43.9416292 10.4544436,44.0024284 11.2423147,44.0429612 C12.0301858,44.083494 12.8079561,44.1037604 13.5756253,44.1037604 C17.3331645,44.1442933 20.7472727,43.637633 23.8179498,42.5837797 C26.888627,41.5299264 29.5047631,40.0910114 31.6663582,38.2670345 C33.8279533,36.4430576 35.4845028,34.335351 36.6360068,31.9439147 C37.7875107,29.5524784 38.322859,27.0394436 38.2420517,24.4048104 C38.2420517,20.8379223 37.0299423,18.0614242 34.6057235,16.075316 C32.1815047,14.0892079 28.2825528,13.0961538 22.9088678,13.0961538 C17.4139718,13.0961538 11.2928193,14.3324048 4.54541027,16.8049068 C3.97975921,17.6966288 3.44441089,18.5883508 2.93936531,19.4800729 C2.43431972,20.3717949 1.93937505,21.2837833 1.45453129,22.2160381 C0.484843762,24.040015 0,25.1344011 0,25.4991965 C0,25.7423934 0.181816411,25.8842583 0.545449232,25.9247911 C8.46456401,22.5200343 14.9291475,20.7568567 19.9391997,20.6352582 L10.9089846,34.132687 C8.12113302,34.7812121 6.0403452,35.6324013 4.66662121,36.6862546 C3.29289722,37.7401078 2.60603522,38.8142276 2.60603522,39.9086137 C2.60603522,41.2867295 3.57572275,42.3608492 5.51509779,43.1309728 C2.08078781,49.2514285 0.363632822,53.1425791 0.363632822,54.8044247 C0.363632822,55.5340154 0.464641939,56.0406757 0.666660173,56.3244054 C0.868678407,56.6081351 1.15150394,56.75 1.51513676,56.75 Z M17.3142876,38.1971154 C15.4174248,38.1971154 13.6531385,38.1588225 12.0214286,38.0822368 L13.734724,35.3825911 L18.262719,34.5784413 C18.7930247,34.4635628 19.0581776,34.2720985 19.0581776,34.0040486 C19.0581776,33.7359987 18.8950066,33.6211201 18.5686646,33.659413 L14.6525608,34.0614879 L19.8536362,26.4220648 C20.9550404,24.8137652 21.7253476,23.8251292 21.7253476,22.9050974 C21.7253476,22.0518966 20.5304944,20.740981 20.4897016,20.6261024 C31.5570713,20.4343411 33.7945578,23.7319922 34.2636744,24.3255314 C34.732791,24.9190705 34.9673493,25.6370614 34.9673493,26.479504 C35.008142,27.3602395 34.7429892,28.3462804 34.1718907,29.4376265 C33.6007922,30.5289727 32.7951355,31.5915992 31.7549204,32.6255061 C30.7147053,33.659413 29.4807247,34.6071609 28.0529785,35.46875 C26.6252323,36.3303391 25.0955043,36.9525978 23.4637944,37.3355263 C21.260986,37.909919 19.2111504,38.1971154 17.3142876,38.1971154 Z" id="P" fill="#033D58" fill-rule="nonzero"></path>
                        <circle id="circular" fill="#FF6600" cx="30.2285714" cy="4" r="4"></circle>
                    </g>
                </g>
                <g id="text" transform="translate(74.000000, 10.000000)" fill-rule="nonzero">
                    <path d="M10.9259072,4.88452321 L11.4007972,4.88903523 C16.7540458,4.99130766 21.1267871,6.83221153 24.5190211,10.4117468 C28.0110267,14.0965626 29.7570295,18.745429 29.7570295,24.358346 C29.7570295,29.971263 27.9896034,34.6308411 24.4547511,38.3370802 C20.9198987,42.0433193 16.3888608,43.8964388 10.8616371,43.8964388 L10.8616371,43.8964388 L8.52651283e-14,43.8964388 L8.52651283e-14,4.88452321 L10.9259072,4.88452321 Z M8.86926582,10.8616371 L6.61981435,10.8616371 L6.61981435,37.9193249 L8.86926582,37.9193249 C18.2098453,37.9193249 22.880135,33.4097103 22.880135,24.390481 C22.880135,15.3712518 18.2098453,10.8616371 8.86926582,10.8616371 L8.86926582,10.8616371 Z" id="d" fill="#FFFFFF"></path>
                    <path d="M42.9966582,17.6742616 C46.5957806,17.6742616 49.3165457,18.745429 51.1589536,20.8877637 L51.1589536,20.8877637 L51.1589536,18.5097722 L57.2646076,18.5097722 L57.2646076,43.8964388 L51.1589536,43.8964388 L51.1589536,41.5827173 L50.9627824,41.8036456 C49.1669922,43.7558481 46.5544641,44.7319494 43.1251983,44.7319494 C39.5689226,44.7319494 36.7303291,43.3608551 34.6094177,40.6186667 C32.4885063,37.8764782 31.4280506,34.6629761 31.4280506,30.9781603 C31.4280506,27.2933446 32.5099297,24.1548242 34.6736878,21.5625992 C36.8374459,18.9703741 39.6117693,17.6742616 42.9966582,17.6742616 Z M44.7640844,23.0729451 C42.6860197,23.0729451 40.9935752,23.8120506 39.6867511,25.2902616 C38.3799269,26.7684726 37.7265148,28.7287089 37.7265148,31.1709705 C37.7265148,33.6132321 38.3906385,35.58418 39.7188861,37.0838143 C41.0471336,38.5834487 42.7610014,39.3332658 44.8604895,39.3332658 C46.9599775,39.3332658 48.6524219,38.604872 49.9378228,37.1480844 C51.2232236,35.6912968 51.8659241,33.6989255 51.8659241,31.1709705 C51.8659241,28.8144023 51.2018003,26.8755893 49.8735527,25.3545316 C48.5453052,23.833474 46.8421491,23.0729451 44.7640844,23.0729451 Z" id="a" fill="#FFFFFF"></path>
                    <polygon id="t" fill="#FFFFFF" points="70.118616 43.8964388 70.118616 24.1012658 75.0674093 24.1012658 75.0674093 19.0239325 70.118616 19.0239325 70.118616 9.8975865 63.8844219 9.8975865 63.8844219 19.0239325 60.86373 19.0239325 60.86373 24.1012658 63.8844219 24.1012658 63.8844219 43.8964388"></polygon>
                    <path d="M86.4432068,17.6742616 C90.0423291,17.6742616 92.7630942,18.745429 94.6055021,20.8877637 L94.6055021,20.8877637 L94.6055021,18.5097722 L100.711156,18.5097722 L100.711156,43.8964388 L94.6055021,43.8964388 L94.6055021,41.5827173 L94.4093309,41.8036456 C92.6135407,43.7558481 90.0010127,44.7319494 86.5717468,44.7319494 C83.0154712,44.7319494 80.1768776,43.3608551 78.0559662,40.6186667 C75.9350549,37.8764782 74.8745992,34.6629761 74.8745992,30.9781603 C74.8745992,27.2933446 75.9564782,24.1548242 78.1202363,21.5625992 C80.2839944,18.9703741 83.0583179,17.6742616 86.4432068,17.6742616 Z M88.2106329,23.0729451 C86.1325682,23.0729451 84.4401238,23.8120506 83.1332996,25.2902616 C81.8264754,26.7684726 81.1730633,28.7287089 81.1730633,31.1709705 C81.1730633,33.6132321 81.8371871,35.58418 83.1654346,37.0838143 C84.4936821,38.5834487 86.2075499,39.3332658 88.307038,39.3332658 C90.406526,39.3332658 92.0989705,38.604872 93.3843713,37.1480844 C94.6697722,35.6912968 95.3124726,33.6989255 95.3124726,31.1709705 C95.3124726,28.8144023 94.6483488,26.8755893 93.3201013,25.3545316 C91.9918537,23.833474 90.2886976,23.0729451 88.2106329,23.0729451 Z" id="a" fill="#FFFFFF"></path>
                    <path d="M116.457316,4.88452321 L116.84754,4.88706107 C125.628044,5.00211088 130.018295,9.02885424 130.018295,16.9672911 C130.018295,25.1938565 125.862166,29.3071392 117.549907,29.3071392 L117.549907,29.3071392 L112.729654,29.3071392 L112.729654,43.8964388 L106.10984,43.8964388 L106.10984,4.88452321 L116.457316,4.88452321 Z M115.814616,10.1546667 L112.729654,10.1546667 L112.729654,24.0369958 L116.007426,24.0369958 C120.849103,24.0369958 123.269941,21.6804276 123.269941,16.9672911 C123.269941,12.4255415 120.784833,10.1546667 115.814616,10.1546667 L115.814616,10.1546667 Z" id="p" fill="#FFFFFF"></path>
                    <g id="i" transform="translate(133.553148, 4.177553)">
                        <path d="M3.66339241,7.32678481 C4.64886639,7.32678481 5.50580028,6.9625879 6.23419409,6.23419409 C6.9625879,5.50580028 7.32678481,4.64886639 7.32678481,3.66339241 C7.32678481,2.67791842 6.9625879,1.82098453 6.23419409,1.09259072 C5.50580028,0.364196906 4.64886639,0 3.66339241,0 C2.67791842,0 1.82098453,0.364196906 1.09259072,1.09259072 C0.364196906,1.82098453 -1.14166529e-13,2.67791842 -1.14166529e-13,3.66339241 C-1.14166529e-13,4.64886639 0.364196906,5.50580028 1.09259072,6.23419409 C1.82098453,6.9625879 2.67791842,7.32678481 3.66339241,7.32678481 Z" id="path" fill="#FF6600"></path>
                        <polygon id="path" fill="#FFFFFF" points="6.81262447 39.7188861 6.81262447 14.3322194 0.57843038 14.3322194 0.57843038 39.7188861"></polygon>
                    </g>
                    <path d="M157.397333,44.7319494 C159.753902,44.7319494 161.831966,44.217789 163.631527,43.1894684 L163.631527,43.1894684 L163.631527,37.2123544 C162.089046,38.8405288 160.396602,39.654616 158.554194,39.654616 C156.411859,39.654616 154.590875,38.8833755 153.091241,37.3408945 C151.591606,35.7984135 150.841789,33.8167539 150.841789,31.3959156 C150.841789,28.9750774 151.505913,26.9291477 152.83416,25.2581266 C154.162408,23.5871055 155.983392,22.7515949 158.297114,22.7515949 C160.268062,22.7515949 162.0462,23.5442588 163.631527,25.1295865 L163.631527,25.1295865 L163.631527,19.2810127 C161.91766,18.2098453 159.946712,17.6742616 157.718684,17.6742616 C153.948174,17.6742616 150.809654,18.9917975 148.303122,21.6268692 C145.796591,24.2619409 144.543325,27.4647314 144.543325,31.2352405 C144.543325,35.0057496 145.764456,38.1978284 148.206717,40.8114768 C150.648979,43.4251252 153.712518,44.7319494 157.397333,44.7319494 Z" id="c" fill="#FFFFFF"></path>
                    <polygon id="k" fill="#FFFFFF" points="174.750245 43.8964388 174.878785 31.5565907 184.326481 43.8964388 192.810127 43.8964388 181.305789 29.6927595 191.974616 18.5097722 183.619511 18.5097722 174.750245 29.1785992 174.750245 0 168.516051 0 168.516051 43.8964388"></polygon>
                    <path d="M205.82481,17.6742616 C209.616743,17.6742616 212.573165,18.8632574 214.694076,21.2412489 C216.814987,23.6192405 217.875443,26.8648776 217.875443,30.9781603 L217.875443,30.9781603 L217.875443,31.8136709 L200.136911,31.8136709 L200.142471,32.2402105 C200.201774,34.4913669 200.735505,36.3629817 201.743662,37.8550549 C202.81483,39.4403826 204.293041,40.2330464 206.178295,40.2330464 C209.134717,40.2330464 211.019972,38.7762588 211.834059,35.8626835 L211.834059,35.8626835 L217.746903,36.8267342 L217.623886,37.1526871 C215.65729,42.2055286 211.842093,44.7319494 206.178295,44.7319494 C202.322093,44.7319494 199.247842,43.5001069 196.955544,41.0364219 C194.663246,38.572737 193.517097,35.3699466 193.517097,31.4280506 C193.517097,27.2719212 194.620399,23.9405907 196.827004,21.4340591 C199.033609,18.9275274 202.032878,17.6742616 205.82481,17.6742616 Z M206.21043,21.7232743 C204.475139,21.7232743 203.061198,22.4195331 201.968608,23.8120506 C200.876017,25.2045682 200.329722,26.7149142 200.329722,28.3430886 L200.329722,28.3430886 L212.091139,28.3430886 C212.091139,26.5863741 211.544844,25.0438931 210.452253,23.7156456 C209.359662,22.387398 207.945722,21.7232743 206.21043,21.7232743 Z" id="e" fill="#FFFFFF"></path>
                    <path d="M227.451679,43.8964388 L227.451679,32.4563713 C227.451679,26.2007539 229.636861,23.0729451 234.007224,23.0729451 C235.121238,23.0729451 236.149558,23.372872 237.092186,23.9727257 L237.092186,23.9727257 L237.863426,18.316962 C236.963646,17.8884951 235.978172,17.6742616 234.907004,17.6742616 C231.522115,17.6742616 229.037007,18.8311224 227.451679,21.1448439 L227.451679,21.1448439 L227.451679,18.5097722 L221.217485,18.5097722 L221.217485,43.8964388 L227.451679,43.8964388 Z" id="r" fill="#FFFFFF"></path>
                </g>
            </g>
        </g>
    </g>
</svg>