
<svg width="252px" height="64px" viewBox="0 0 252 64" version="1.1" xmlns="http://www.w3.org/2000/svg" xmlns:xlink="http://www.w3.org/1999/xlink">
    <g id="Canvas" stroke="none" stroke-width="1" fill="none" fill-rule="evenodd">
        <g id="logo-white">
            <g id="icon" transform="translate(-4.946329, -4.946329)">
                <path d="M22.8213293,10.8213293 L51.0713293,10.8213293 C57.6987463,10.8213293 63.0713293,16.1939123 63.0713293,22.8213293 L63.0713293,51.0713293 C63.0713293,57.6987463 57.6987463,63.0713293 51.0713293,63.0713293 L22.8213293,63.0713293 C16.1939123,63.0713293 10.8213293,57.6987463 10.8213293,51.0713293 L10.8213293,22.8213293 C10.8213293,16.1939123 16.1939123,10.8213293 22.8213293,10.8213293 Z" id="Background" fill="#FFFFFF" transform="translate(36.946329, 36.946329) rotate(45.000000) translate(-36.946329, -36.946329) "></path>
                <path d="M34.0708246,41.9578497 C34.5267229,40.3649521 36.1876001,39.4432321 37.7804977,39.8991303 L37.9645509,39.9582692 C38.8714083,40.2821933 39.5720896,41.0245128 39.8392171,41.9578497 L46.2882543,64.4931596 L45.4403023,65.3413806 C40.7540108,70.0276721 33.156031,70.0276721 28.4697395,65.3413806 L27.6202543,64.4921596 Z M45.4403023,8.41928467 L65.4160688,28.3950512 C70.1023603,33.0813427 70.1023603,40.6793225 65.4160688,45.365614 L50.8152543,59.9661596 L40.1439444,5.33388569 C42.0838398,5.86659811 43.916082,6.89506444 45.4403023,8.41928467 Z M33.765612,5.33401897 L23.0942543,59.9661596 L8.49397294,45.365614 C3.80768144,40.6793225 3.80768144,33.0813427 8.49397294,28.3950512 L28.4697395,8.41928467 C29.9938326,6.89519154 31.8258964,5.86676964 33.765612,5.33401897 Z M36.9550209,26.7555375 C39.1641599,26.7555375 40.9550209,28.5463985 40.9550209,30.7555375 C40.9550209,32.9646765 39.1641599,34.7555375 36.9550209,34.7555375 C34.7458819,34.7555375 32.9550209,32.9646765 32.9550209,30.7555375 C32.9550209,28.5463985 34.7458819,26.7555375 36.9550209,26.7555375 Z" id="Block" fill="#FF6600"></path>
            </g>
            <g id="tapicker" transform="translate(72.000000, 12.000000)" fill="#FFF" fill-rule="nonzero">
                <path d="M0,9.14254144 L4.13351135,9.14254144 L4.13351135,1.94917127 L9.61281709,1.94917127 L9.61281709,9.14254144 L14.5634179,9.14254144 L14.5634179,13.0872928 L9.61281709,13.0872928 L9.61281709,25.8961326 C9.61281709,26.4530387 9.63684913,26.9325967 9.68491322,27.3348066 C9.7329773,27.7370166 9.84512684,28.0773481 10.0213618,28.3558011 C10.1975968,28.6342541 10.4619493,28.8430939 10.8144192,28.9823204 C11.1668892,29.121547 11.64753,29.1911602 12.2563418,29.1911602 C12.6408545,29.1911602 13.0253672,29.1834254 13.4098798,29.1679558 C13.7943925,29.1524862 14.1789052,29.0983425 14.5634179,29.0055249 L14.5634179,33.0895028 C13.9546061,33.1513812 13.3618158,33.2132597 12.7850467,33.2751381 C12.2082777,33.3370166 11.6154873,33.3679558 11.0066756,33.3679558 C9.564753,33.3679558 8.40320427,33.2364641 7.52202937,32.9734807 C6.64085447,32.7104972 5.95193591,32.3237569 5.4552737,31.8132597 C4.95861148,31.3027624 4.62216288,30.6607735 4.4459279,29.8872928 C4.26969292,29.1138122 4.16555407,28.2320442 4.13351135,27.241989 L4.13351135,13.0872928 L0,13.0872928 L0,9.14254144 Z" id="Path"></path>
                <path d="M39.3164219,27.798895 C39.3164219,28.4486188 39.4045394,28.9127072 39.5807744,29.1911602 C39.7570093,29.4696133 40.1014686,29.6088398 40.6141522,29.6088398 C40.7743658,29.6088398 40.9666222,29.6088398 41.1909212,29.6088398 C41.4152203,29.6088398 41.6715621,29.5779006 41.9599466,29.5160221 L41.9599466,33.1823204 C41.7676903,33.2441989 41.5193591,33.3138122 41.2149533,33.3911602 C40.9105474,33.4685083 40.5981308,33.5381215 40.2777036,33.6 C39.9572764,33.6618785 39.6368491,33.7082873 39.3164219,33.7392265 C38.9959947,33.7701657 38.7236315,33.7856354 38.4993324,33.7856354 C37.3778371,33.7856354 36.4485981,33.5690608 35.7116155,33.1359116 C34.9746328,32.7027624 34.493992,31.9447514 34.2696929,30.8618785 C33.1802403,31.8828729 31.8424566,32.6254144 30.2563418,33.0895028 C28.670227,33.5535912 27.1401869,33.7856354 25.6662216,33.7856354 C24.5447263,33.7856354 23.4712951,33.638674 22.4459279,33.3447514 C21.4205607,33.0508287 20.5153538,32.6176796 19.7303071,32.0453039 C18.9452603,31.4729282 18.3204272,30.7458564 17.8558077,29.8640884 C17.3911883,28.9823204 17.1588785,27.9535912 17.1588785,26.7779006 C17.1588785,25.2928177 17.4392523,24.0861878 18,23.158011 C18.5607477,22.2298343 19.2977303,21.5027624 20.2109479,20.9767956 C21.1241656,20.4508287 22.1495327,20.0718232 23.2870494,19.839779 C24.4245661,19.6077348 25.5700935,19.4298343 26.7236315,19.3060773 C27.7169559,19.120442 28.6622163,18.9889503 29.5594126,18.9116022 C30.4566088,18.8342541 31.2496662,18.7027624 31.9385848,18.5171271 C32.6275033,18.3314917 33.1722296,18.0453039 33.5727637,17.6585635 C33.9732977,17.2718232 34.1735648,16.6917127 34.1735648,15.918232 C34.1735648,15.2375691 34.0053405,14.680663 33.6688919,14.2475138 C33.3324433,13.8143646 32.9158879,13.481768 32.4192256,13.2497238 C31.9225634,13.0176796 31.3698264,12.8629834 30.7610147,12.7856354 C30.1522029,12.7082873 29.5754339,12.6696133 29.0307076,12.6696133 C27.4926569,12.6696133 26.2269693,12.9790055 25.2336449,13.5977901 C24.2403204,14.2165746 23.6795728,15.1756906 23.5514019,16.4751381 L18.0720961,16.4751381 C18.1682243,14.9281768 18.552737,13.6441989 19.2256342,12.6232044 C19.8985314,11.6022099 20.7556742,10.7823204 21.7970628,10.1635359 C22.8384513,9.54475138 24.0160214,9.11160221 25.329773,8.8640884 C26.6435247,8.61657459 27.9893191,8.49281768 29.3671562,8.49281768 C30.5847797,8.49281768 31.7863818,8.61657459 32.9719626,8.8640884 C34.1575434,9.11160221 35.222964,9.51381215 36.1682243,10.0707182 C37.1134846,10.6276243 37.8744993,11.3469613 38.4512684,12.2287293 C39.0280374,13.1104972 39.3164219,14.1856354 39.3164219,15.4541436 L39.3164219,27.798895 Z M33.8371162,21.1160221 C33.0040053,21.641989 31.9786382,21.959116 30.7610147,22.0674033 C29.5433912,22.1756906 28.3257677,22.3381215 27.1081442,22.5546961 C26.5313752,22.6475138 25.9706275,22.7790055 25.4259012,22.9491713 C24.8811749,23.119337 24.400534,23.3513812 23.9839786,23.6453039 C23.5674232,23.9392265 23.2389853,24.3259669 22.9986649,24.8055249 C22.7583445,25.2850829 22.6381842,25.8651934 22.6381842,26.5458564 C22.6381842,27.1337017 22.8144192,27.6287293 23.1668892,28.0309392 C23.5193591,28.4331492 23.9439252,28.7502762 24.4405874,28.9823204 C24.9372497,29.2143646 25.481976,29.3767956 26.0747664,29.4696133 C26.6675567,29.5624309 27.2042724,29.6088398 27.6849132,29.6088398 C28.293725,29.6088398 28.9506008,29.5314917 29.6555407,29.3767956 C30.3604806,29.2220994 31.0253672,28.959116 31.6502003,28.5878453 C32.2750334,28.2165746 32.7957276,27.7447514 33.212283,27.1723757 C33.6288385,26.6 33.8371162,25.8961326 33.8371162,25.0607735 L33.8371162,21.1160221 Z" id="Shape"></path>
                <path d="M45.3724967,9.14254144 L50.5634179,9.14254144 L50.5634179,12.3911602 L50.6595461,12.3911602 C51.4285714,10.998895 52.5020027,10.001105 53.8798398,9.39779006 C55.2576769,8.79447514 56.7476636,8.49281768 58.3497997,8.49281768 C60.3044059,8.49281768 62.0106809,8.82541436 63.4686248,9.49060773 C64.9265688,10.1558011 66.1361816,11.0685083 67.0974633,12.2287293 C68.058745,13.3889503 68.7797063,14.7425414 69.2603471,16.2895028 C69.740988,17.8364641 69.9813084,19.4917127 69.9813084,21.2552486 C69.9813084,22.8640884 69.76502,24.4265193 69.3324433,25.9425414 C68.8998665,27.4585635 68.2429907,28.7966851 67.3618158,29.9569061 C66.4806409,31.1171271 65.3671562,32.0453039 64.0213618,32.7414365 C62.6755674,33.4375691 61.0894526,33.7856354 59.2630174,33.7856354 C58.4619493,33.7856354 57.6608812,33.7160221 56.8598131,33.5767956 C56.058745,33.4375691 55.2897196,33.2132597 54.552737,32.9038674 C53.8157543,32.5944751 53.1348465,32.2 52.5100134,31.720442 C51.8851802,31.240884 51.364486,30.6762431 50.9479306,30.0265193 L50.8518024,30.0265193 L50.8518024,42 L45.3724967,42 L45.3724967,9.14254144 Z M64.5020027,21.1624309 C64.5020027,20.079558 64.3578104,19.0276243 64.0694259,18.0066298 C63.7810414,16.9856354 63.3484646,16.080663 62.7716956,15.2917127 C62.1949266,14.5027624 61.4739653,13.8685083 60.6088117,13.3889503 C59.7436582,12.9093923 58.7503338,12.6696133 57.6288385,12.6696133 C55.3217623,12.6696133 53.5834446,13.4430939 52.4138852,14.9900552 C51.2443258,16.5370166 50.6595461,18.5944751 50.6595461,21.1624309 C50.6595461,22.3690608 50.811749,23.4906077 51.1161549,24.5270718 C51.4205607,25.5635359 51.8771696,26.4530387 52.4859813,27.1955801 C53.0947931,27.9381215 53.823765,28.5259669 54.6728972,28.959116 C55.5220294,29.3922652 56.5073431,29.6088398 57.6288385,29.6088398 C58.8785047,29.6088398 59.9359146,29.361326 60.8010681,28.8662983 C61.6662216,28.3712707 62.3791722,27.7292818 62.9399199,26.9403315 C63.5006676,26.1513812 63.9012016,25.2541436 64.141522,24.2486188 C64.3818425,23.2430939 64.5020027,22.2143646 64.5020027,21.1624309 Z" id="Shape"></path>
                <path d="M74.7396529,0 L80.2189586,0 L80.2189586,5.0121547 L74.7396529,5.0121547 L74.7396529,0 Z M74.7396529,9.14254144 L80.2189586,9.14254144 L80.2189586,33.1359116 L74.7396529,33.1359116 L74.7396529,9.14254144 Z" id="Shape"></path>
                <path d="M102.953271,17.1712707 C102.728972,15.6861878 102.11215,14.5646409 101.102804,13.8066298 C100.093458,13.0486188 98.8197597,12.6696133 97.2817089,12.6696133 C96.576769,12.6696133 95.823765,12.7856354 95.0226969,13.0176796 C94.2216288,13.2497238 93.4846462,13.6828729 92.811749,14.3171271 C92.1388518,14.9513812 91.5781041,15.8331492 91.129506,16.9624309 C90.6809079,18.0917127 90.4566088,19.5690608 90.4566088,21.3944751 C90.4566088,22.3845304 90.576769,23.3745856 90.8170895,24.3646409 C91.0574099,25.3546961 91.4419226,26.2364641 91.9706275,27.0099448 C92.4993324,27.7834254 93.1802403,28.4099448 94.0133511,28.8895028 C94.8464619,29.3690608 95.8558077,29.6088398 97.0413885,29.6088398 C98.6435247,29.6088398 99.965287,29.1292818 101.006676,28.1701657 C102.048064,27.2110497 102.696929,25.8651934 102.953271,24.1325967 L108.432577,24.1325967 C107.919893,27.2574586 106.694259,29.6475138 104.755674,31.3027624 C102.817089,32.958011 100.245661,33.7856354 97.0413885,33.7856354 C95.0867824,33.7856354 93.364486,33.4685083 91.8744993,32.8342541 C90.3845127,32.2 89.1268358,31.3337017 88.1014686,30.2353591 C87.0761015,29.1370166 86.2990654,27.8298343 85.7703605,26.3138122 C85.2416555,24.7977901 84.9773031,23.158011 84.9773031,21.3944751 C84.9773031,19.6 85.2336449,17.9138122 85.7463284,16.3359116 C86.259012,14.758011 87.0280374,13.3889503 88.0534045,12.2287293 C89.0787717,11.0685083 90.35247,10.1558011 91.8744993,9.49060773 C93.3965287,8.82541436 95.1829105,8.49281768 97.2336449,8.49281768 C98.6755674,8.49281768 100.045394,8.67071823 101.343124,9.02651934 C102.640854,9.38232044 103.794393,9.9160221 104.803738,10.6276243 C105.813084,11.3392265 106.638184,12.2364641 107.279039,13.319337 C107.919893,14.4022099 108.304406,15.6861878 108.432577,17.1712707 L102.953271,17.1712707 Z" id="Path"></path>
                <polygon id="Path" points="113.046729 0 118.526035 0 118.526035 18.841989 128.427236 9.14254144 135.156208 9.14254144 125.639519 17.960221 136.069426 33.1359116 129.388518 33.1359116 121.794393 21.4872928 118.526035 24.5502762 118.526035 33.1359116 113.046729 33.1359116"></polygon>
                <path d="M155.775701,19.0276243 C155.711615,18.1922652 155.52737,17.3878453 155.222964,16.6143646 C154.918558,15.840884 154.502003,15.1679558 153.973298,14.5955801 C153.444593,14.0232044 152.803738,13.559116 152.050734,13.2033149 C151.29773,12.8475138 150.456609,12.6696133 149.52737,12.6696133 C148.566088,12.6696133 147.692924,12.8320442 146.907877,13.1569061 C146.12283,13.481768 145.449933,13.9303867 144.889186,14.5027624 C144.328438,15.0751381 143.87984,15.7480663 143.543391,16.521547 C143.206943,17.2950276 143.022697,18.1303867 142.990654,19.0276243 L155.775701,19.0276243 Z M142.990654,22.5082873 C142.990654,23.4364641 143.126836,24.3337017 143.399199,25.2 C143.671562,26.0662983 144.080107,26.8243094 144.624833,27.4740331 C145.169559,28.1237569 145.858478,28.641989 146.691589,29.0287293 C147.5247,29.4154696 148.518024,29.6088398 149.671562,29.6088398 C151.273698,29.6088398 152.563418,29.2762431 153.540721,28.6110497 C154.518024,27.9458564 155.246996,26.9480663 155.727637,25.6176796 L160.918558,25.6176796 C160.630174,26.9171271 160.133511,28.0773481 159.428571,29.0983425 C158.723632,30.119337 157.874499,30.9779006 156.881175,31.6740331 C155.88785,32.3701657 154.774366,32.8961326 153.540721,33.2519337 C152.307076,33.6077348 151.017356,33.7856354 149.671562,33.7856354 C147.716956,33.7856354 145.986649,33.4762431 144.480641,32.8574586 C142.974633,32.238674 141.700935,31.3723757 140.659546,30.2585635 C139.618158,29.1447514 138.833111,27.8143646 138.304406,26.2674033 C137.775701,24.720442 137.511348,23.0187845 137.511348,21.1624309 C137.511348,19.4607735 137.791722,17.8441989 138.35247,16.3127072 C138.913218,14.7812155 139.714286,13.4353591 140.755674,12.2751381 C141.797063,11.1149171 143.05474,10.1944751 144.528705,9.51381215 C146.00267,8.83314917 147.668892,8.49281768 149.52737,8.49281768 C151.481976,8.49281768 153.236315,8.88729282 154.790387,9.67624309 C156.344459,10.4651934 157.634179,11.5093923 158.659546,12.8088398 C159.684913,14.1082873 160.429907,15.601105 160.894526,17.2872928 C161.359146,18.9734807 161.479306,20.7138122 161.255007,22.5082873 L142.990654,22.5082873 Z" id="Shape"></path>
                <path d="M165.436582,9.14254144 L170.579439,9.14254144 L170.579439,13.7834254 L170.675567,13.7834254 C170.835781,13.1337017 171.148198,12.4994475 171.612817,11.880663 C172.077437,11.2618785 172.638184,10.6972376 173.29506,10.1867403 C173.951936,9.67624309 174.680908,9.26629834 175.481976,8.95690608 C176.283044,8.64751381 177.100134,8.49281768 177.933244,8.49281768 C178.574099,8.49281768 179.014686,8.50828729 179.255007,8.53922652 C179.495327,8.57016575 179.743658,8.60110497 180,8.6320442 L180,13.7370166 C179.615487,13.6751381 179.222964,13.6209945 178.82243,13.5745856 C178.421896,13.5281768 178.029372,13.5049724 177.64486,13.5049724 C176.715621,13.5049724 175.842457,13.6828729 175.025367,14.038674 C174.208278,14.3944751 173.495327,14.920442 172.886515,15.6165746 C172.277704,16.3127072 171.797063,17.1712707 171.444593,18.1922652 C171.092123,19.2132597 170.915888,20.3889503 170.915888,21.719337 L170.915888,33.1359116 L165.436582,33.1359116 L165.436582,9.14254144 Z" id="Path"></path>
            </g>
        </g>
    </g>
</svg>