<?xml version="1.0" encoding="UTF-8"?>
<svg width="316px" height="64px" viewBox="0 0 316 64" version="1.1" xmlns="http://www.w3.org/2000/svg" xmlns:xlink="http://www.w3.org/1999/xlink">
    <title>logo-white</title>
    <defs>
        <linearGradient x1="50%" y1="0%" x2="50%" y2="100%" id="linearGradient-1">
            <stop stop-color="#FF9900" offset="0%"></stop>
            <stop stop-color="#FF6600" offset="100%"></stop>
        </linearGradient>
    </defs>
    <g id="icons" stroke="none" stroke-width="1" fill="none" fill-rule="evenodd">
        <g id="canvas" transform="translate(-356.000000, -129.000000)">
            <g id="logo-white" transform="translate(356.000000, 129.000000)">
                <g id="icon">
                    <rect id="Background" fill="url(#linearGradient-1)" x="0" y="0" width="64" height="64" rx="14.25"></rect>
                    <path d="M31.9393453,3.5 C34.3810253,3.5 36.3603979,5.48071756 36.3603979,7.9240565 C36.3603979,9.5020283 35.534819,10.8870448 34.2923105,11.6701789 L42.5,48.9090002 L34.106,60.6240002 L39.1842105,48.9090002 L33.072262,24.4445952 C32.9732987,24.048473 32.6640057,23.73918 32.2678835,23.6402167 C31.7151691,23.5021319 31.1556517,23.8066417 30.9632187,24.3293324 L30.927738,24.4445952 L28.269,35.0845199 L24.72,34.2975199 L29.6926086,11.7350619 C28.3911475,10.9650984 27.5182927,9.54657977 27.5182927,7.9240565 C27.5182927,5.48071756 29.4976654,3.5 31.9393453,3.5 Z M23.784,38.5455199 L27.214,39.3055199 L24.8157895,48.9090002 L29.894,60.6230002 L21.5,48.9090002 L23.784,38.5455199 Z M24.059,37.2965199 L27.524,38.0635199 L27.338,38.8095199 L23.894,38.0455199 L24.059,37.2965199 Z M24.335,36.0475199 L27.835,36.8225199 L27.648,37.5675199 L24.17,36.7965199 L24.335,36.0475199 Z M24.61,34.7965199 L28.145,35.5805199 L27.959,36.3265199 L24.445,35.5465199 L24.61,34.7965199 Z M31.9393453,5.71202825 C30.7185053,5.71202825 29.728819,6.70238703 29.728819,7.9240565 C29.728819,9.14572597 30.7185053,10.1360848 31.9393453,10.1360848 C33.1601853,10.1360848 34.1498716,9.14572597 34.1498716,7.9240565 C34.1498716,6.70238703 33.1601853,5.71202825 31.9393453,5.71202825 Z" id="Combined-Shape" fill="#FFFFFF"></path>
                </g>
                <g id="DataPicker" transform="translate(80.000000, 12.000000)" fill="#FFFFFF" fill-rule="nonzero">
                    <path d="M0,39.5859375 L0,3.3984375 L7.59375,3.3984375 C11.234375,3.3984375 14.109375,3.7578125 16.21875,4.4765625 C18.484375,5.1796875 20.5390625,6.375 22.3828125,8.0625 C26.1171875,11.46875 27.984375,15.9453125 27.984375,21.4921875 C27.984375,27.0546875 26.0390625,31.5546875 22.1484375,34.9921875 C20.1953125,36.7109375 18.1484375,37.90625 16.0078125,38.578125 C14.0078125,39.25 11.171875,39.5859375 7.5,39.5859375 L0,39.5859375 Z M5.4609375,34.453125 L7.921875,34.453125 C10.375,34.453125 12.4140625,34.1953125 14.0390625,33.6796875 C15.6640625,33.1328125 17.1328125,32.265625 18.4453125,31.078125 C21.1328125,28.625 22.4765625,25.4296875 22.4765625,21.4921875 C22.4765625,17.5234375 21.1484375,14.3046875 18.4921875,11.8359375 C16.1015625,9.6328125 12.578125,8.53125 7.921875,8.53125 L5.4609375,8.53125 L5.4609375,34.453125 Z" id="Shape"></path>
                    <path d="M50.671875,16.7578125 L55.96875,16.7578125 L55.96875,39.5859375 L50.671875,39.5859375 L50.671875,37.1953125 C48.5,39.2265625 46.1640625,40.2421875 43.6640625,40.2421875 C40.5078125,40.2421875 37.8984375,39.1015625 35.8359375,36.8203125 C33.7890625,34.4921875 32.765625,31.5859375 32.765625,28.1015625 C32.765625,24.6796875 33.7890625,21.828125 35.8359375,19.546875 C37.8828125,17.265625 40.4453125,16.125 43.5234375,16.125 C46.1796875,16.125 48.5625,17.21875 50.671875,19.40625 L50.671875,16.7578125 Z M38.15625,28.1015625 C38.15625,30.2890625 38.7421875,32.0703125 39.9140625,33.4453125 C41.1171875,34.8359375 42.6328125,35.53125 44.4609375,35.53125 C46.4140625,35.53125 47.9921875,34.859375 49.1953125,33.515625 C50.3984375,32.125 51,30.359375 51,28.21875 C51,26.078125 50.3984375,24.3125 49.1953125,22.921875 C47.9921875,21.5625 46.4296875,20.8828125 44.5078125,20.8828125 C42.6953125,20.8828125 41.1796875,21.5703125 39.9609375,22.9453125 C38.7578125,24.3359375 38.15625,26.0546875 38.15625,28.1015625 Z" id="Shape"></path>
                    <polygon id="Path" points="69.0625 21.6796875 69.0625 39.5859375 63.7890625 39.5859375 63.7890625 21.6796875 59.8182373 21.6796875 59.8182373 16.7578125 63.7890625 16.7578125 63.7890625 11.3895696 69.0625 8.390625 69.0625 16.7578125 73.1640625 16.7578125 73.1640625 21.6796875"></polygon>
                    <path d="M93.578125,16.7578125 L98.875,16.7578125 L98.875,39.5859375 L93.578125,39.5859375 L93.578125,37.1953125 C91.40625,39.2265625 89.0703125,40.2421875 86.5703125,40.2421875 C83.4140625,40.2421875 80.8046875,39.1015625 78.7421875,36.8203125 C76.6953125,34.4921875 75.671875,31.5859375 75.671875,28.1015625 C75.671875,24.6796875 76.6953125,21.828125 78.7421875,19.546875 C80.7890625,17.265625 83.3515625,16.125 86.4296875,16.125 C89.0859375,16.125 91.46875,17.21875 93.578125,19.40625 L93.578125,16.7578125 Z M81.0625,28.1015625 C81.0625,30.2890625 81.6484375,32.0703125 82.8203125,33.4453125 C84.0234375,34.8359375 85.5390625,35.53125 87.3671875,35.53125 C89.3203125,35.53125 90.8984375,34.859375 92.1015625,33.515625 C93.3046875,32.125 93.90625,30.359375 93.90625,28.21875 C93.90625,26.078125 93.3046875,24.3125 92.1015625,22.921875 C90.8984375,21.5625 89.3359375,20.8828125 87.4140625,20.8828125 C85.6015625,20.8828125 84.0859375,21.5703125 82.8671875,22.9453125 C81.6640625,24.3359375 81.0625,26.0546875 81.0625,28.1015625 Z" id="Shape"></path>
                    <path d="M112,24.890625 L112,39.5859375 L106.539062,39.5859375 L106.539062,3.3984375 L112.726562,3.3984375 C115.757812,3.3984375 118.046875,3.609375 119.59375,4.03125 C121.15625,4.453125 122.53125,5.25 123.71875,6.421875 C125.796875,8.453125 126.835938,11.015625 126.835938,14.109375 C126.835938,17.421875 125.726562,20.046875 123.507812,21.984375 C121.289062,23.921875 118.296875,24.890625 114.53125,24.890625 L112,24.890625 Z M112,19.828125 L114.039062,19.828125 C119.054688,19.828125 121.5625,17.8984375 121.5625,14.0390625 C121.5625,10.3046875 118.976562,8.4375 113.804688,8.4375 L112,8.4375 L112,19.828125 Z" id="Shape"></path>
                    <path d="M136.726562,16.7578125 L136.726562,39.5859375 L131.453125,39.5859375 L131.453125,20 L136.726562,16.7578125 Z M130.65625,7.265625 C130.65625,6.34375 130.992188,5.546875 131.664062,4.875 C132.335938,4.203125 133.140625,3.8671875 134.078125,3.8671875 C135.03125,3.8671875 135.84375,4.203125 136.515625,4.875 C137.1875,5.53125 137.523438,6.3359375 137.523438,7.2890625 C137.523438,8.2421875 137.1875,9.0546875 136.515625,9.7265625 C135.859375,10.3984375 135.054688,10.734375 134.101562,10.734375 C133.148438,10.734375 132.335938,10.3984375 131.664062,9.7265625 C130.992188,9.0546875 130.65625,8.234375 130.65625,7.265625 Z" id="Shape"></path>
                    <path d="M161.171875,17.7421875 L161.171875,24.75 C159.96875,23.28125 158.890625,22.2734375 157.9375,21.7265625 C157,21.1640625 155.898438,20.8828125 154.632812,20.8828125 C152.648438,20.8828125 151,21.578125 149.6875,22.96875 C148.375,24.359375 147.71875,26.1015625 147.71875,28.1953125 C147.71875,30.3359375 148.351562,32.09375 149.617188,33.46875 C150.898438,34.84375 152.53125,35.53125 154.515625,35.53125 C155.78125,35.53125 156.898438,35.2578125 157.867188,34.7109375 C158.804688,34.1796875 159.90625,33.1484375 161.171875,31.6171875 L161.171875,38.578125 C159.03125,39.6875 156.890625,40.2421875 154.75,40.2421875 C151.21875,40.2421875 148.265625,39.1015625 145.890625,36.8203125 C143.515625,34.5234375 142.328125,31.671875 142.328125,28.265625 C142.328125,24.859375 143.53125,21.984375 145.9375,19.640625 C148.34375,17.296875 151.296875,16.125 154.796875,16.125 C157.046875,16.125 159.171875,16.6640625 161.171875,17.7421875 Z" id="Path"></path>
                    <polygon id="Path" points="171.554688 0 171.554688 24.140625 178.984375 16.7578125 186.0625 16.7578125 176.148438 26.34375 186.789062 39.5859375 179.945312 39.5859375 172.398438 29.953125 171.554688 30.796875 171.554688 39.5859375 166.28125 39.5859375 166.28125 3.3984375"></polygon>
                    <path d="M210.976562,29.4140625 L194.617188,29.4140625 C194.757812,31.2890625 195.367188,32.78125 196.445312,33.890625 C197.523438,34.984375 198.90625,35.53125 200.59375,35.53125 C201.90625,35.53125 202.992188,35.21875 203.851562,34.59375 C204.695312,33.96875 205.65625,32.8125 206.734375,31.125 L211.1875,33.609375 C210.5,34.78125 209.773438,35.7851562 209.007812,36.6210938 C208.242188,37.4570312 207.421875,38.1445312 206.546875,38.6835938 C205.671875,39.2226562 204.726562,39.6171875 203.710938,39.8671875 C202.695312,40.1171875 201.59375,40.2421875 200.40625,40.2421875 C197,40.2421875 194.265625,39.1484375 192.203125,36.9609375 C190.140625,34.7578125 189.109375,31.8359375 189.109375,28.1953125 C189.109375,24.5859375 190.109375,21.6640625 192.109375,19.4296875 C194.125,17.2265625 196.796875,16.125 200.125,16.125 C203.484375,16.125 206.140625,17.1953125 208.09375,19.3359375 C210.03125,21.4609375 211,24.40625 211,28.171875 L210.976562,29.4140625 Z M205.5625,25.1015625 C204.828125,22.2890625 203.054688,20.8828125 200.242188,20.8828125 C199.601562,20.8828125 199,20.9804688 198.4375,21.1757812 C197.875,21.3710938 197.363281,21.6523438 196.902344,22.0195312 C196.441406,22.3867188 196.046875,22.828125 195.71875,23.34375 C195.390625,23.859375 195.140625,24.4453125 194.96875,25.1015625 L205.5625,25.1015625 Z" id="Shape"></path>
                    <path d="M216.742188,16.7578125 L222.015625,16.7578125 L222.015625,18.796875 C222.984375,17.78125 223.84375,17.0859375 224.59375,16.7109375 C225.359375,16.3203125 226.265625,16.125 227.3125,16.125 C228.703125,16.125 230.15625,16.578125 231.671875,17.484375 L229.257812,22.3125 C228.257812,21.59375 227.28125,21.234375 226.328125,21.234375 C223.453125,21.234375 222.015625,23.40625 222.015625,27.75 L222.015625,39.5859375 L216.742188,39.5859375 L216.742188,16.7578125 Z" id="Path"></path>
                </g>
            </g>
        </g>
    </g>
</svg>