
<svg width="236px" height="64px" viewBox="0 0 236 64" version="1.1" xmlns="http://www.w3.org/2000/svg" xmlns:xlink="http://www.w3.org/1999/xlink">
    <g id="Canvas" stroke="none" stroke-width="1" fill="none" fill-rule="evenodd">
        <g id="logo-white">
            <g id="icon" transform="translate(-4.946329, -4.946329)">
                <path d="M22.8213293,10.8213293 L51.0713293,10.8213293 C57.6987463,10.8213293 63.0713293,16.1939123 63.0713293,22.8213293 L63.0713293,51.0713293 C63.0713293,57.6987463 57.6987463,63.0713293 51.0713293,63.0713293 L22.8213293,63.0713293 C16.1939123,63.0713293 10.8213293,57.6987463 10.8213293,51.0713293 L10.8213293,22.8213293 C10.8213293,16.1939123 16.1939123,10.8213293 22.8213293,10.8213293 Z" id="Background" fill="#FFFFFF" transform="translate(36.946329, 36.946329) rotate(45.000000) translate(-36.946329, -36.946329) "></path>
                <path d="M34.0708246,41.9578497 C34.5267229,40.3649521 36.1876001,39.4432321 37.7804977,39.8991303 L37.9645509,39.9582692 C38.8714083,40.2821933 39.5720896,41.0245128 39.8392171,41.9578497 L46.2882543,64.4931596 L45.4403023,65.3413806 C40.7540108,70.0276721 33.156031,70.0276721 28.4697395,65.3413806 L27.6202543,64.4921596 Z M45.4403023,8.41928467 L65.4160688,28.3950512 C70.1023603,33.0813427 70.1023603,40.6793225 65.4160688,45.365614 L50.8152543,59.9661596 L40.1439444,5.33388569 C42.0838398,5.86659811 43.916082,6.89506444 45.4403023,8.41928467 Z M33.765612,5.33401897 L23.0942543,59.9661596 L8.49397294,45.365614 C3.80768144,40.6793225 3.80768144,33.0813427 8.49397294,28.3950512 L28.4697395,8.41928467 C29.9938326,6.89519154 31.8258964,5.86676964 33.765612,5.33401897 Z M36.9550209,26.7555375 C39.1641599,26.7555375 40.9550209,28.5463985 40.9550209,30.7555375 C40.9550209,32.9646765 39.1641599,34.7555375 36.9550209,34.7555375 C34.7458819,34.7555375 32.9550209,32.9646765 32.9550209,30.7555375 C32.9550209,28.5463985 34.7458819,26.7555375 36.9550209,26.7555375 Z" id="Block" fill="#FF6600"></path>
            </g>
            <g id="tapicker" transform="translate(76.000000, 6.000000)" fill="#FFF" fill-rule="nonzero">
                <polygon id="Path" points="8.53723404 21.111579 8.53723404 41.3490274 2.55319149 41.3490274 2.55319149 21.111579 0 21.111579 0 15.5489296 2.55319149 15.5489296 2.55319149 9.48228646 8.53723404 6.09242556 8.53723404 15.5489296 10.9276596 15.5489296 10.9276596 21.111579"></polygon>
                <path d="M32.2960993,15.5489296 L38.3067376,15.5489296 L38.3067376,41.3490274 L32.2960993,41.3490274 L32.2960993,38.6471691 C29.8315603,40.9428657 27.1808511,42.090714 24.3439716,42.090714 C20.7624113,42.090714 17.8014184,40.801592 15.4609929,38.2233482 C13.1382979,35.5921267 11.9769504,32.3075147 11.9769504,28.3695121 C11.9769504,24.5021463 13.1382979,21.2793414 15.4609929,18.7010976 C17.7836879,16.1228537 20.6914894,14.8337318 24.1843972,14.8337318 C27.1985816,14.8337318 29.9024823,16.0698761 32.2960993,18.5421647 L32.2960993,15.5489296 Z M18.0939716,28.3695121 C18.0939716,30.8418007 18.7588652,32.85495 20.0886525,34.40896 C21.4539007,35.9806292 23.1737589,36.7664638 25.248227,36.7664638 C27.464539,36.7664638 29.2553191,36.007118 30.6205674,34.4884264 C31.9858156,32.9167572 32.6684397,30.9212671 32.6684397,28.5019561 C32.6684397,26.0826451 31.9858156,24.087155 30.6205674,22.5154858 C29.2553191,20.979135 27.4822695,20.2109596 25.3014184,20.2109596 C23.2446809,20.2109596 21.5248227,20.9879646 20.141844,22.5419746 C18.7765957,24.1136438 18.0939716,26.0561563 18.0939716,28.3695121 Z" id="Shape"></path>
                <path d="M47.3049645,52 L41.320922,52 L41.320922,15.5489296 L47.3049645,15.5489296 L47.3049645,18.3567431 C49.6631206,16.0080689 52.3404255,14.8337318 55.3368794,14.8337318 C58.9007092,14.8337318 61.8351064,16.1405129 64.1400709,18.7540752 C66.4804965,21.3499783 67.6507092,24.6257607 67.6507092,28.5814225 C67.6507092,32.4487883 66.4893617,35.6715931 64.1666667,38.249837 C61.8617021,40.8104216 58.9539007,42.090714 55.4432624,42.090714 C52.4113475,42.090714 49.6985816,40.8810585 47.3049645,38.4617474 L47.3049645,52 Z M61.5336879,28.6079113 C61.5336879,26.1356227 60.8599291,24.1224734 59.5124113,22.5684634 C58.1471631,20.9967942 56.427305,20.2109596 54.3528369,20.2109596 C52.1542553,20.2109596 50.3723404,20.9703054 49.0070922,22.488997 C47.641844,24.0076885 46.9592199,26.0031787 46.9592199,28.4754673 C46.9592199,30.8947783 47.641844,32.8902684 49.0070922,34.4619376 C50.3546099,35.9982884 52.1276596,36.7664638 54.3262411,36.7664638 C56.4007092,36.7664638 58.1117021,35.9894588 59.4592199,34.4354488 C60.8421986,32.8814388 61.5336879,30.9389263 61.5336879,28.6079113 Z" id="Shape"></path>
                <path d="M75.4255319,15.5489296 L75.4255319,41.3490274 L69.4414894,41.3490274 L69.4414894,18.9419691 L75.4255319,15.5489296 Z M68.537234,8.21470876 C68.537234,7.17281569 68.9184397,6.27219626 69.6808511,5.51285047 C70.4432624,4.75350467 71.356383,4.37383178 72.4202128,4.37383178 C73.501773,4.37383178 74.4237589,4.75350467 75.1861702,5.51285047 C75.9485816,6.25453706 76.3297872,7.16398609 76.3297872,8.24119757 C76.3297872,9.31840904 75.9485816,10.2366877 75.1861702,10.9960335 C74.4414894,11.7553793 73.5283688,12.1350522 72.4468085,12.1350522 C71.3652482,12.1350522 70.4432624,11.7553793 69.6808511,10.9960335 C68.9184397,10.2366877 68.537234,9.30957944 68.537234,8.21470876 Z" id="Shape"></path>
                <path d="M98.6258865,16.6614595 L98.6258865,24.5816127 C97.2606383,22.9216475 96.037234,21.7826288 94.9556738,21.1645566 C93.891844,20.5288253 92.641844,20.2109596 91.2056738,20.2109596 C88.9539007,20.2109596 87.0833333,20.9967942 85.5939716,22.5684634 C84.1046099,24.1401326 83.3599291,26.1091339 83.3599291,28.4754673 C83.3599291,30.8947783 84.0780142,32.8814388 85.5141844,34.4354488 C86.9680851,35.9894588 88.820922,36.7664638 91.072695,36.7664638 C92.5088652,36.7664638 93.7765957,36.4574277 94.8758865,35.8393556 C95.9397163,35.2389426 97.1897163,34.0734351 98.6258865,32.3428331 L98.6258865,40.2100087 C96.1968085,41.4638122 93.7677305,42.090714 91.3386525,42.090714 C87.3315603,42.090714 83.9804965,40.801592 81.285461,38.2233482 C78.5904255,35.6274451 77.2429078,32.4046403 77.2429078,28.5549337 C77.2429078,24.7052271 78.608156,21.4559335 81.3386525,18.8070528 C84.0691489,16.1581721 87.4202128,14.8337318 91.391844,14.8337318 C93.9450355,14.8337318 96.356383,15.4429744 98.6258865,16.6614595 Z" id="Path"></path>
                <polygon id="Path" points="107.278369 -1.72149908e-15 107.278369 23.8929037 115.70922 15.5489296 123.741135 15.5489296 112.491135 26.3828516 124.565603 41.3490274 116.799645 41.3490274 108.235816 30.4621278 107.278369 31.4157248 107.278369 41.3490274 101.294326 41.3490274 101.294326 3.39056727"></polygon>
                <path d="M146.595745,29.8528852 L128.031915,29.8528852 C128.191489,31.9719898 128.882979,33.6584438 130.106383,34.9122473 C131.329787,36.1483917 132.898936,36.7664638 134.81383,36.7664638 C136.303191,36.7664638 137.535461,36.4132797 138.510638,35.7069115 C139.468085,35.0005434 140.558511,33.6937622 141.781915,31.7865681 L146.835106,34.5943817 C146.054965,35.918822 145.230496,37.0534259 144.361702,37.9981933 C143.492908,38.9429608 142.562057,39.7199658 141.569149,40.3292083 C140.576241,40.9384509 139.503546,41.3843458 138.351064,41.6668931 C137.198582,41.9494403 135.948582,42.090714 134.601064,42.090714 C130.735816,42.090714 127.632979,40.8545697 125.292553,38.382281 C122.952128,35.8923332 121.781915,32.5900619 121.781915,28.4754673 C121.781915,24.396191 122.916667,21.0939198 125.18617,18.5686536 C127.473404,16.0787057 130.505319,14.8337318 134.281915,14.8337318 C138.093972,14.8337318 141.108156,16.0433873 143.324468,18.4626983 C145.52305,20.8643501 146.62234,24.1931102 146.62234,28.4489785 L146.595745,29.8528852 Z M140.452128,24.9789448 C139.618794,21.800288 137.606383,20.2109596 134.414894,20.2109596 C133.687943,20.2109596 133.005319,20.3213296 132.367021,20.5420697 C131.728723,20.7628097 131.14805,21.0806754 130.625,21.4956667 C130.10195,21.910658 129.654255,22.4095305 129.281915,22.9922843 C128.909574,23.575038 128.625887,24.2372582 128.430851,24.9789448 L140.452128,24.9789448 Z" id="Shape"></path>
                <path d="M148.599291,15.5489296 L154.583333,15.5489296 L154.583333,17.8534558 C155.682624,16.7056075 156.657801,15.9197729 157.508865,15.495952 C158.37766,15.0544719 158.812057,14.8337318 160,14.8337318 L160,20.3434036 C156.737589,20.3434036 154.583333,23.0629211 154.583333,27.97218 L154.583333,41.3490274 L148.599291,41.3490274 L148.599291,15.5489296 Z" id="Path"></path>
            </g>
        </g>
    </g>
</svg>